<svg width="118" height="114" viewBox="0 0 118 114" fill="none" xmlns="http://www.w3.org/2000/svg">
<g clip-path="url(#clip0_627_632)">
<path d="M59.4395 59.2545C82.8689 49.8796 94.2306 23.3486 84.8296 0L0 33.9434C9.401 57.2919 36.018 68.6263 59.4395 59.2545Z" fill="#FFF9C0"/>
<path fill-rule="evenodd" clip-rule="evenodd" d="M78.3321 42C76.2827 42 74.5667 43.553 74.3627 45.5922L74.2302 46.9174C71.0837 47.6939 68.1211 48.9372 65.42 50.5695L64.3871 49.7244C62.8009 48.4267 60.4894 48.5419 59.0402 49.9911L53.991 55.0403C52.5418 56.4895 52.4265 58.801 53.7243 60.3872L54.5694 61.4201C52.9371 64.1212 51.6939 67.0838 50.9174 70.2302L49.5922 70.3627C47.553 70.5667 46 72.2827 46 74.3321V81.4728C46 83.5222 47.553 85.2382 49.5922 85.4421L50.9174 85.5747C51.6939 88.7211 52.9372 91.6838 54.5695 94.3849L53.7244 95.4178C52.4267 97.004 52.5419 99.3155 53.9911 100.765L59.0403 105.814C60.4895 107.263 62.801 107.378 64.3872 106.081L65.4201 105.235C68.1212 106.868 71.0838 108.111 74.2302 108.887L74.3627 110.213C74.5667 112.252 76.2827 113.805 78.3321 113.805H85.4728C87.5222 113.805 89.2382 112.252 89.4422 110.213L89.5747 108.887C92.7211 108.111 95.6837 106.868 98.3847 105.235L99.4178 106.081C101.004 107.379 103.316 107.263 104.765 105.814L109.814 100.765C111.263 99.3157 111.378 97.0042 110.081 95.418L109.235 94.3849C110.868 91.6838 112.111 88.7211 112.887 85.5747L114.213 85.4421C116.252 85.2382 117.805 83.5222 117.805 81.4728V74.3321C117.805 72.2826 116.252 70.5666 114.213 70.3627L112.887 70.2302C112.111 67.0838 110.868 64.1212 109.235 61.4201L110.081 60.387C111.379 58.8008 111.263 56.4893 109.814 55.0402L104.765 49.9909C103.316 48.5418 101.004 48.4265 99.418 49.7243L98.3849 50.5695C95.6838 48.9372 92.7211 47.6939 89.5747 46.9174L89.4422 45.5922C89.2382 43.553 87.5222 42 85.4728 42H78.3321ZM81.6847 66.3703C88.4143 66.3703 93.8698 71.6309 93.8698 78.1202C93.8698 84.6095 88.4143 89.8701 81.6847 89.8701C74.9551 89.8701 69.4996 84.6095 69.4996 78.1202C69.4996 71.6309 74.9551 66.3703 81.6847 66.3703Z" fill="#A1ACF1"/>
<path d="M10.1169 26.9662V23.4924C10.1169 18.6274 10.1169 16.193 11.0637 14.3348C11.8966 12.7003 13.2245 11.3724 14.859 10.5396C16.7172 9.59277 19.1515 9.59277 24.0166 9.59277H74.3996C79.2647 9.59277 81.6938 9.59277 83.552 10.5396C85.1865 11.3724 86.5189 12.7003 87.3517 14.3348C88.2976 16.1912 88.2976 18.6226 88.2976 23.4781V26.9662M10.1169 26.9662H88.2976M10.1169 26.9662V56.502C10.1169 61.367 10.1169 63.7983 11.0637 65.6565C11.8966 67.291 13.2245 68.6212 14.859 69.4541C16.7154 70.3999 19.1468 70.3999 24.0023 70.3999H74.4122C79.2677 70.3999 81.6956 70.3999 83.552 69.4541C85.1865 68.6212 86.5189 67.291 87.3517 65.6565C88.2976 63.8001 88.2976 61.3722 88.2976 56.5167V26.9662" stroke="#051EAC" stroke-width="5" stroke-linecap="round" stroke-linejoin="round"/>
<path d="M23.1472 53.0269H40.5207" stroke="#051EAC" stroke-width="5" stroke-linecap="round" stroke-linejoin="round"/>
</g>
<defs>
<clipPath id="clip0_627_632">
<rect width="118" height="114" fill="white"/>
</clipPath>
</defs>
</svg>
