<svg width="118" height="114" viewBox="0 0 118 114" fill="none" xmlns="http://www.w3.org/2000/svg">
<g clip-path="url(#clip0_627_609)">
<path d="M51.1425 62.8257C29.7868 55.872 6.89243 67.5161 0 88.8231L77.3215 114C84.2139 92.6928 72.491 69.7769 51.1425 62.8257Z" fill="#FFF9C0"/>
<path d="M48.4917 51.8566C43 47.4632 43 44.1421 43 30C43 15.8579 43 8.7868 48.4917 4.3934C53.9835 0 62.8223 0 80.5 0C98.1777 0 107.017 0 112.508 4.3934C118 8.7868 118 15.8579 118 30C118 44.1421 118 47.4632 112.508 51.8566C107.017 56.25 98.1777 56.25 80.5 56.25C72.9844 56.25 68.3837 60.4059 62.6337 64.4911C61.2799 65.4529 60.603 65.9339 59.9224 65.9074C59.3567 65.8854 58.7613 65.5781 58.4158 65.1297C58 64.5901 58 63.7181 58 61.9739V58.2151C58 57.2443 58 56.7589 57.8405 56.3839C57.691 56.0323 57.4908 55.7796 57.1827 55.5536C56.854 55.3126 56.3323 55.1901 55.2888 54.945C52.5175 54.2942 50.3193 53.3186 48.4917 51.8566Z" fill="#A1ACF1"/>
<path d="M67.5715 102.395C65.6752 65.1647 9.63262 65.1647 7.73633 102.395M49.6209 50.5383C49.6209 57.1475 44.2631 62.5054 37.6539 62.5054C31.0447 62.5054 25.6869 57.1475 25.6869 50.5383C25.6869 43.9291 31.0447 38.5713 37.6539 38.5713C44.2631 38.5713 49.6209 43.9291 49.6209 50.5383Z" stroke="#051EAC" stroke-width="5" stroke-linecap="round" stroke-linejoin="round"/>
<path d="M17.4065 51.5573C17.4065 37.4424 23.6948 26 37.7142 26C51.7336 26 58.0219 37.4424 58.0219 51.5573" stroke="#051EAC" stroke-width="5" stroke-linecap="round" stroke-linejoin="round"/>
<circle cx="17.4067" cy="51.143" r="3.86813" fill="#051EAC"/>
<circle cx="58.0219" cy="51.143" r="3.86813" fill="#051EAC"/>
</g>
<defs>
<clipPath id="clip0_627_609">
<rect width="118" height="114" fill="white"/>
</clipPath>
</defs>
</svg>
