<svg width="118" height="114" viewBox="0 0 118 114" fill="none" xmlns="http://www.w3.org/2000/svg">
<rect x="10" y="52" width="72" height="53" rx="5" fill="#FFF9C0"/>
<path d="M47.565 52.2407C42 47.8148 42 44.4691 42 30.2222C42 15.9753 42 8.85188 47.565 4.42594C53.1299 0 62.0866 0 80 0C97.9134 0 106.87 0 112.435 4.42594C118 8.85188 118 15.9753 118 30.2222C118 44.4691 118 47.8148 112.435 52.2407C106.87 56.6667 97.9134 56.6667 80 56.6667C72.227 56.6667 67.531 61.0279 61.5332 65.2235C60.2577 66.1157 59.62 66.5619 58.9864 66.534C58.4587 66.5108 57.9075 66.2237 57.586 65.8045C57.2 65.3014 57.2 64.485 57.2 62.8521V58.4468C57.2 57.5376 57.2 57.083 57.049 56.7306C56.9084 56.4023 56.7163 56.162 56.4269 55.9526C56.1163 55.7279 55.6319 55.6187 54.663 55.4003L54.6629 55.4003C51.7553 54.7448 49.4629 53.7502 47.565 52.2407Z" fill="#A1ACF1"/>
<path d="M28 111H40M52 111H40M40 111V99M40 99H68C72.4183 99 76 95.4183 76 91V55C76 50.5817 72.4183 47 68 47H12C7.58172 47 4 50.5817 4 55V91C4 95.4183 7.58172 99 12 99H40Z" stroke="#051EAC" stroke-width="5" stroke-linecap="round" stroke-linejoin="round"/>
<path d="M30.9723 77.2124C30.5245 76.1107 29.5138 75.3382 28.3377 75.1611C28.0614 75.1195 27.784 75.0777 27.507 75.0359C27.3292 75.0096 27.1514 74.9833 26.9699 74.9532C26.6325 74.8968 26.422 74.6186 26.422 74.2239C26.4184 73.333 26.422 72.4458 26.422 71.5549C26.422 71.085 26.422 70.6151 26.422 70.1452C26.422 69.7166 26.6252 69.4422 27.0316 69.3746C27.9533 69.2242 28.8786 69.0889 29.8039 68.946C29.8293 68.9422 29.8511 68.9385 29.8765 68.9385C30.203 68.9422 30.3591 68.7806 30.4534 68.4498C30.5695 68.0476 30.7582 67.6641 30.9396 67.2807C30.9977 67.1566 30.9977 67.0815 30.9215 66.98C30.4643 66.3672 30.0107 65.7507 29.5499 65.138C29.3975 64.935 29.2306 64.7357 29.0709 64.529C28.8314 64.2207 28.8097 63.9538 29.0491 63.6456C29.4047 63.1907 29.7676 62.7321 30.1668 62.3186C30.7655 61.7021 31.386 61.1044 32.0246 60.533C32.46 60.142 32.685 60.1646 33.1495 60.533C33.9042 61.1344 34.659 61.7434 35.4065 62.3562C35.5117 62.4426 35.5879 62.4464 35.7113 62.39C36.1685 62.1795 36.6329 61.9953 37.0901 61.7885C37.1518 61.7622 37.2135 61.6758 37.2244 61.6081C37.3986 60.4991 37.5546 59.3902 37.7324 58.2812C37.805 57.879 38.0336 57.7061 38.4255 57.7061C39.7427 57.7061 41.0635 57.7061 42.3807 57.7061C42.827 57.7061 43.0556 57.9203 43.1173 58.3752C43.2697 59.4616 43.4293 60.548 43.5926 61.6344C43.5999 61.687 43.6543 61.7547 43.7015 61.7735C44.1877 61.9878 44.6776 62.1983 45.1674 62.4013C45.211 62.4201 45.2872 62.4126 45.3235 62.3825C46.1617 61.7359 46.9963 61.0856 47.8272 60.4277C48.1175 60.1984 48.4368 60.1871 48.7162 60.439C49.0501 60.7472 49.3839 61.0555 49.696 61.3863C50.3382 62.0705 50.9805 62.7622 51.601 63.4689C51.9711 63.8899 51.9638 64.1643 51.63 64.6192C51.0567 65.4011 50.4761 66.1793 49.8955 66.9536C49.8193 67.0551 49.8266 67.1266 49.8738 67.2393C50.0842 67.7431 50.2983 68.2468 50.487 68.758C50.5414 68.9084 50.6212 68.9535 50.7555 68.9761C51.786 69.1377 52.8166 69.2994 53.8471 69.4648C54.2063 69.5212 54.4168 69.773 54.4168 70.1452C54.4204 70.9459 54.4204 71.7466 54.4204 72.5473C54.4204 73.0773 54.4204 73.6112 54.4204 74.1412C54.4204 74.784 54.2317 74.9833 53.6257 75.0697C52.6279 75.2126 51.6336 75.3705 50.6394 75.5321C50.5777 75.5434 50.5124 75.6336 50.4834 75.7013C50.4315 75.8282 50.38 75.9557 50.3286 76.0841C50.0255 76.8414 50.1264 77.7114 50.6176 78.3628V78.3628C51.0023 78.874 51.4014 79.3777 51.7897 79.889C52.0255 80.201 52.0437 80.4792 51.7933 80.7724C51.1619 81.5054 50.5233 82.231 49.8629 82.9339C49.5182 83.2986 49.1335 83.6256 48.7416 83.9376C48.3461 84.2534 48.1066 84.2271 47.7147 83.9113C46.9455 83.2873 46.1726 82.6633 45.4033 82.0392C45.3198 81.9716 45.2618 81.9716 45.1638 82.0129C44.6957 82.2234 44.2204 82.4189 43.7487 82.6294C43.6942 82.6557 43.6325 82.7309 43.6217 82.7948C43.4947 83.6594 43.3822 84.5241 43.2552 85.3887C43.2152 85.6593 43.1608 85.93 43.0919 86.1931C42.9975 86.5615 42.7943 86.7044 42.3916 86.7044C41.4844 86.7081 40.5772 86.7044 39.6701 86.7044C39.2891 86.7044 38.9081 86.7044 38.5271 86.7044C37.9792 86.7044 37.7832 86.5202 37.7034 85.9563C37.5582 84.9188 37.4058 83.8812 37.2607 82.8437C37.2426 82.7121 37.1881 82.6482 37.0611 82.5994C36.6112 82.4227 36.1685 82.2272 35.7258 82.028C35.6242 81.9828 35.5552 81.9828 35.4682 82.058C34.6626 82.6971 33.8534 83.3324 33.0442 83.9639C32.6923 84.2421 32.3875 84.2308 32.0754 83.9113C31.2118 83.0392 30.3482 82.1633 29.4918 81.2799C29.3539 81.1408 29.2451 80.9716 29.129 80.81C28.9221 80.5243 28.9076 80.1972 29.1181 79.9115C29.6225 79.2161 30.1377 78.5319 30.6494 77.844C30.7546 77.7011 30.8671 77.5583 30.9614 77.4042C30.9904 77.3553 30.9941 77.2651 30.9723 77.2124V77.2124Z" stroke="#051EAC" stroke-width="4" stroke-linecap="round" stroke-linejoin="round"/>
<circle cx="40.4204" cy="72.7061" r="2" stroke="#051EAC" stroke-width="5" stroke-linecap="round" stroke-linejoin="round"/>
</svg>
