<svg width="118" height="114" viewBox="0 0 118 114" fill="none" xmlns="http://www.w3.org/2000/svg">
<circle cx="38.6655" cy="48.2006" r="38.6655" fill="#FFF9C0"/>
<path d="M54.1719 92.41C54.7801 93.7119 55.5065 94.9551 56.1991 96.2234C57.4694 97.9407 60.3949 101.727 61.9343 103.136C62.5678 103.691 63.1928 104.253 63.8517 104.766C69.2405 108.974 75.3558 111.343 82.1891 111.847C85.5592 112.099 88.8872 111.838 92.1729 111.082C94.048 110.646 95.8809 110.058 97.6462 109.302C98.3219 109.016 98.947 109.041 99.5213 109.537C99.5973 109.604 99.7072 109.638 99.8085 109.68C102.41 110.738 105.096 111.502 107.85 112.032C110.612 112.561 113.399 112.964 116.229 112.855C116.322 112.852 116.414 112.846 116.509 112.837C116.782 112.812 116.913 112.469 116.718 112.275C113.526 109.05 111.532 105.228 110.933 100.717C110.882 100.339 110.797 99.9277 110.89 99.5749C111 99.1549 111.254 98.7601 111.515 98.4073C116.98 90.8644 118.982 82.4816 117.555 73.3092C116.752 68.1602 114.793 63.448 111.667 59.2734C105.409 50.9158 97.0296 46.3044 86.5475 45.5568C82.9324 45.2964 79.3679 45.6828 75.8795 46.6403C68.928 48.5471 63.159 52.2933 58.6232 57.8707C54.2733 63.2128 51.8491 69.353 51.2917 76.2071C51.089 78.6766 51.1988 81.1461 51.562 83.5988C52.0181 86.6562 52.8627 89.6045 54.1719 92.41Z" fill="#A1ACF1"/>
<path d="M62.1847 64.7563C60.9766 41.1719 25.2719 41.1719 24.0638 64.7563M52.6545 26.2541C52.6545 31.5175 48.3876 35.7844 43.1242 35.7844C37.8608 35.7844 33.594 31.5175 33.594 26.2541C33.594 20.9907 37.8608 16.7239 43.1242 16.7239C48.3876 16.7239 52.6545 20.9907 52.6545 26.2541ZM77.4331 37.3088C77.4331 56.2571 62.0725 71.6176 43.1242 71.6176C24.176 71.6176 8.81543 56.2571 8.81543 37.3088C8.81543 18.3606 24.176 3 43.1242 3C62.0725 3 77.4331 18.3606 77.4331 37.3088Z" stroke="#051EAC" stroke-width="5" stroke-linecap="round" stroke-linejoin="round"/>
</svg>
