<svg width="118" height="114" viewBox="0 0 118 114" fill="none" xmlns="http://www.w3.org/2000/svg">
<path d="M68.3692 42.6145C70.3419 78.7127 42.6707 109.583 6.57252 111.556L3.00033 46.1867L68.3692 42.6145Z" fill="#FFF9C0"/>
<path d="M81.7987 72.4026C61.8053 72.4026 45.5974 56.1947 45.5974 36.2013C45.5974 16.2079 61.8053 0 81.7987 0C101.792 0 118 16.2079 118 36.2013C118 41.9923 116.64 47.4658 114.223 52.3198C112.397 55.9841 114.93 60.9281 115.895 64.5348C117.437 70.2974 115.895 71.8393 110.132 70.2974C106.526 69.3324 101.581 66.8 97.9172 68.6251C93.0632 71.0428 87.5898 72.4026 81.7987 72.4026Z" fill="#A1ACF1"/>
<path d="M19.7693 58.6415L53.3074 39.3882V99.6325L19.7693 82.2424M19.7693 58.6415V82.2424M19.7693 58.6415H10.0211C7.56357 58.6415 6.3348 58.6415 5.39615 59.1198C4.57049 59.5405 3.89921 60.2118 3.47851 61.0374C3.00024 61.9761 3.00024 63.2048 3.00024 65.6624V75.2215C3.00024 77.6791 3.00024 78.9078 3.47851 79.8465C3.89921 80.6721 4.57049 81.3434 5.39615 81.7641C6.3348 82.2424 7.56357 82.2424 10.0211 82.2424H19.7693M12.9375 82.2424L8.58992 110.191H21.6325L25.3038 86.5899M71.9396 57.3995L79.3925 53.052M71.9396 83.4847L79.3925 87.8322M76.2872 69.821H83.7401M54.5495 59.8837H53.9284V81.0002H54.5495C55.3895 81.0002 55.8095 81.0002 56.164 80.9741C60.9358 80.6223 64.7298 76.8282 65.0817 72.0564C65.1078 71.702 65.1078 71.282 65.1078 70.442C65.1078 69.602 65.1078 69.1819 65.0817 68.8275C64.7298 64.0557 60.9358 60.2616 56.164 59.9098C55.8095 59.8837 55.3895 59.8837 54.5495 59.8837Z" stroke="#051EAC" stroke-width="5" stroke-linecap="round" stroke-linejoin="round"/>
</svg>
